<?xml version="1.0" encoding="UTF-8"?>
<svg width="98px" height="90px" viewBox="0 0 98 90" version="1.1" xmlns="http://www.w3.org/2000/svg" xmlns:xlink="http://www.w3.org/1999/xlink">
    <g id="layer1" transform="translate(-55.239703,-18.499527)">
        <g id="g1202" transform="matrix(0.26458333,0,0,0.26458333,55.239703,18.191023)">
            <g id="Ebene_1">
                <g id="g1115">
                    <rect id="rect1107" height="255.119" width="255.118" y="1.166" x="0" style="fill:#002f5c"></rect>

                    <rect id="rect1109" height="112.781" width="24.815001" y="72.023003" x="72.657997" style="fill:#ffffff"></rect>

                    <polygon id="polygon1111" points="115.15,184.8 115.15,115.353 139.964,98.457 139.964,184.8 " style="fill:#ffffff"></polygon>

                    <polygon id="polygon1113" points="157.642,184.804 157.642,87.192 182.455,70.292 182.455,184.804 " style="fill:#ffffff"></polygon>

                </g>

            </g>
            <g id="Group_100_60_0_60">
                <g id="g1128">
                    <path id="path1118" d="m 39.385,278.74 c -3.525,-3.455 -8.742,-5.287 -13.324,-5.287 -11.562,0 -18.258,8.67 -18.188,19.104 0,9.023 5.357,17.766 18.188,17.766 4.229,0 8.107,-1.059 12.055,-4.371 V 295.94 H 24.369 v -7.049 h 21.078 v 20.232 c -4.935,5.428 -11.068,8.6 -19.387,8.6 -18.117,0 -25.942,-12.055 -25.942,-25.166 0,-14.24 9.094,-26.365 25.942,-26.365 6.557,0 13.183,2.467 18.259,7.473 z" style="fill:#002f5c"></path>

                    <path id="path1120" d="M 98.11,316.736 H 88.875 L 73.859,299.675 H 63.427 v 17.061 h -7.896 v -49.418 c 7.684,0 15.297,0.07 22.981,0.07 11.42,0 17.412,7.826 17.412,16.145 0,7.049 -3.666,13.959 -13.394,15.367 l 14.733,16.426 z M 63.427,274.58 v 17.906 h 15.016 c 6.556,0 9.446,-4.16 9.446,-8.812 0,-4.441 -2.891,-9.094 -9.376,-9.094 z" style="fill:#002f5c"></path>

                    <path id="path1122" d="m 153.805,292.275 c 0,13.322 -8.107,25.52 -25.237,25.52 -17.131,0 -25.237,-12.479 -25.237,-25.449 0,-15.016 10.504,-25.873 25.378,-25.873 16.848,0.069 25.096,12.478 25.096,25.802 z m -25.238,18.258 c 12.266,0 17.412,-8.672 17.412,-18.117 0,-9.094 -5.217,-18.541 -17.271,-18.752 -11.42,0 -17.554,7.965 -17.554,18.752 0.142,8.74 5.217,18.117 17.413,18.117 z" style="fill:#002f5c"></path>

                    <path id="path1124" d="m 204.424,267.46 v 28.832 c 0,14.521 -9.587,21.783 -21.501,21.359 -10.997,-0.281 -20.373,-7.33 -20.373,-21.359 V 267.46 h 7.825 v 28.832 c 0,8.953 5.216,13.816 12.548,14.1 7.896,0.422 13.676,-4.725 13.676,-14.1 V 267.46 Z" style="fill:#002f5c"></path>

                    <path id="path1126" d="m 224.095,301.58 v 15.156 H 216.2 v -49.348 c 7.543,0 15.297,-0.07 22.84,-0.07 23.546,0 23.616,34.121 0,34.262 z m 0,-7.262 h 14.945 c 13.042,0 12.972,-19.738 0,-19.738 h -14.945 z" style="fill:#002f5c"></path>

                </g>

            </g>
            <g display="none" id="Group_Breite_kleiner_15_mm_100_0_0_100" style="display:none">
                <g id="g1141" display="inline" style="display:inline">
                    <path id="path1131" d="m 39.385,278.74 c -3.525,-3.455 -8.742,-5.287 -13.324,-5.287 -11.562,0 -18.258,8.67 -18.188,19.104 0,9.023 5.357,17.766 18.188,17.766 4.229,0 8.107,-1.059 12.055,-4.371 V 295.94 H 24.369 v -7.049 h 21.078 v 20.232 c -4.935,5.428 -11.068,8.6 -19.387,8.6 -18.117,0 -25.942,-12.055 -25.942,-25.166 0,-14.24 9.094,-26.365 25.942,-26.365 6.557,0 13.183,2.467 18.259,7.473 z"></path>

                    <path id="path1133" d="M 98.11,316.736 H 88.875 L 73.859,299.675 H 63.427 v 17.061 h -7.896 v -49.418 c 7.684,0 15.297,0.07 22.981,0.07 11.42,0 17.412,7.826 17.412,16.145 0,7.049 -3.666,13.959 -13.394,15.367 l 14.733,16.426 z M 63.427,274.58 v 17.906 h 15.016 c 6.556,0 9.446,-4.16 9.446,-8.812 0,-4.441 -2.891,-9.094 -9.376,-9.094 z"></path>

                    <path id="path1135" d="m 153.805,292.275 c 0,13.322 -8.107,25.52 -25.237,25.52 -17.131,0 -25.237,-12.479 -25.237,-25.449 0,-15.016 10.504,-25.873 25.378,-25.873 16.848,0.069 25.096,12.478 25.096,25.802 z m -25.238,18.258 c 12.266,0 17.412,-8.672 17.412,-18.117 0,-9.094 -5.217,-18.541 -17.271,-18.752 -11.42,0 -17.554,7.965 -17.554,18.752 0.142,8.74 5.217,18.117 17.413,18.117 z"></path>

                    <path id="path1137" d="m 204.424,267.46 v 28.832 c 0,14.521 -9.587,21.783 -21.501,21.359 -10.997,-0.281 -20.373,-7.33 -20.373,-21.359 V 267.46 h 7.825 v 28.832 c 0,8.953 5.216,13.816 12.548,14.1 7.896,0.422 13.676,-4.725 13.676,-14.1 V 267.46 Z"></path>

                    <path id="path1139" d="m 224.095,301.58 v 15.156 H 216.2 v -49.348 c 7.543,0 15.297,-0.07 22.84,-0.07 23.546,0 23.616,34.121 0,34.262 z m 0,-7.262 h 14.945 c 13.042,0 12.972,-19.738 0,-19.738 h -14.945 z"></path>

                </g>

            </g>
        </g>
    </g>
</svg>